<svg width="21" height="21" viewBox="0 0 21 21" fill="none" xmlns="http://www.w3.org/2000/svg">
<rect width="21" height="21" fill="white"/>
<path d="M3.33061 9.79047C3.42941 9.3294 3.83688 9 4.30842 9H17.6916C18.1631 9 18.5706 9.3294 18.6694 9.79047L19.7408 14.7905C19.8742 15.413 19.3997 16 18.763 16H3.23699C2.60034 16 2.12579 15.413 2.25918 14.7905L3.33061 9.79047Z" fill="black"/>
<path d="M5.96019 5.5H16.0398C16.2722 5.5 16.4739 5.66009 16.5267 5.88639L17.2267 8.88639C17.2999 9.2 17.0618 9.5 16.7398 9.5H5.26019C4.93815 9.5 4.7001 9.2 4.77327 8.88639L5.47327 5.88639C5.52608 5.66009 5.72782 5.5 5.96019 5.5Z" stroke="black"/>
<circle cx="5.5" cy="11.5" r="1.5" fill="white"/>
<circle cx="16.5" cy="11.5" r="1.5" fill="white"/>
<rect x="3" y="15" width="3" height="3" fill="black"/>
<rect x="16" y="15" width="3" height="3" fill="black"/>
</svg>
